<svg width="20" height="20" viewBox="0 0 20 20" fill="none" xmlns="http://www.w3.org/2000/svg">
<path d="M18.1764 0.196155H15.6704C14.8972 0.196155 14.2704 0.810434 14.2704 1.56823V4.02403C14.2704 4.78183 14.8972 5.39615 15.6704 5.39615H18.1764C18.9496 5.39615 19.5765 4.78183 19.5765 4.02403V1.56823C19.5765 0.810434 18.9496 0.196155 18.1764 0.196155Z" fill="#FBFBFB"/>
<path d="M4.20649 14.4H1.5078C0.675061 14.4 0 15.0143 0 15.7721V18.2279C0 18.9857 0.675061 19.6 1.5078 19.6H4.20649C5.03922 19.6 5.71429 18.9857 5.71429 18.2279V15.7721C5.71429 15.0143 5.03922 14.4 4.20649 14.4Z" fill="#FBFBFB"/>
<path d="M3.906 7.23864H1.40008C0.626857 7.23864 0 7.85292 0 8.61072V11.0665C0 11.8243 0.626999 12.4386 1.40022 12.4386H3.906C4.67927 12.4386 5.30612 11.8243 5.30612 11.0665V8.61072C5.30612 7.85292 4.67927 7.23864 3.906 7.23864Z" fill="#FBFBFB"/>
<path d="M11.1037 14.3614H8.59777C7.82455 14.3614 7.19769 14.9756 7.19769 15.7334L7.19755 18.1892C7.19755 18.947 7.82469 19.5614 8.59792 19.5614H11.1037C11.877 19.5614 12.5038 18.947 12.5038 18.1892V15.7334C12.5038 14.9756 11.877 14.3614 11.1037 14.3614Z" fill="#FBFBFB"/>
<path d="M3.906 0.0539201H1.40008C0.626857 0.0539201 0 0.668199 0 1.426V3.8818C0 4.6396 0.626999 5.25392 1.40022 5.25392H3.906C4.67927 5.25392 5.30612 4.6396 5.30612 3.8818V1.426C5.30612 0.668199 4.67927 0.0539201 3.906 0.0539201Z" fill="#FBFBFB"/>
<path d="M11.2974 7.31092H8.79151C8.01828 7.31092 7.39143 7.9252 7.39143 8.683V11.1388C7.39143 11.8966 8.01843 12.5109 8.79165 12.5109H11.2974C12.0707 12.5109 12.6975 11.8966 12.6975 11.1388V8.683C12.6975 7.9252 12.0707 7.31092 11.2974 7.31092Z" fill="#FBFBFB"/>
<path d="M18.3333 14.3614H15.8274C15.0542 14.3614 14.4273 14.9756 14.4273 15.7334V18.1892C14.4273 18.947 15.0543 19.5614 15.8276 19.5614H18.3333C19.1066 19.5614 19.7335 18.947 19.7335 18.1892V15.7334C19.7335 14.9756 19.1066 14.3614 18.3333 14.3614Z" fill="#FBFBFB"/>
<path d="M10.9941 0.139817H8.4882C7.71498 0.139817 7.08812 0.754096 7.08812 1.5119V3.96769C7.08812 4.72549 7.71512 5.33982 8.48834 5.33982H10.9941C11.7674 5.33982 12.3942 4.72504 12.3942 3.96724V1.5119C12.3942 0.754096 11.7674 0.139817 10.9941 0.139817Z" fill="#FBFBFB"/>
<path d="M18.1523 7.45364H15.6464C14.8732 7.45364 14.2463 8.06792 14.2463 8.82572V11.2815C14.2463 12.0393 14.8733 12.6536 15.6466 12.6536H18.1523C18.9256 12.6536 19.5525 12.0393 19.5525 11.2815V8.82572C19.5525 8.06792 18.9256 7.45364 18.1523 7.45364Z" fill="#FBFBFB"/>
</svg>
