<svg xmlns="http://www.w3.org/2000/svg" aria-hidden="true" style="position:absolute;width:0;height:0;overflow:hidden">
  <defs>
    <symbol id="logo" viewBox="0 0 346 32">
      <path fill="#fbfbfb" d="M29.082.314h-4.01c-1.237 0-2.24.983-2.24 2.195v3.929c0 1.212 1.003 2.195 2.24 2.195h4.01c1.237 0 2.24-.983 2.24-2.195V2.509c0-1.212-1.003-2.195-2.24-2.195zM6.73 23.04H2.412C1.08 23.04 0 24.023 0 25.235v3.929c0 1.212 1.08 2.195 2.412 2.195H6.73c1.332 0 2.412-.983 2.412-2.195v-3.929c0-1.212-1.08-2.195-2.412-2.195zM6.25 11.582H2.241c-1.237 0-2.24.983-2.24 2.195v3.929c0 1.212 1.003 2.195 2.24 2.195H6.25c1.237 0 2.24-.983 2.24-2.195v-3.929c0-1.212-1.003-2.195-2.24-2.195zM17.766 22.978h-4.009c-1.237 0-2.24.983-2.24 2.195v3.929c0 1.212 1.003 2.196 2.241 2.196h4.009c1.237 0 2.24-.983 2.24-2.196v-3.929c0-1.212-1.003-2.195-2.24-2.195zM6.25.086H2.241c-1.237 0-2.24.983-2.24 2.195V6.21c0 1.212 1.003 2.195 2.24 2.195H6.25c1.237 0 2.24-.983 2.24-2.195V2.281C8.49 1.069 7.487.086 6.25.086zM18.076 11.697h-4.009c-1.237 0-2.24.983-2.24 2.195v3.929c0 1.212 1.003 2.195 2.24 2.195h4.009c1.237 0 2.24-.983 2.24-2.195v-3.929c0-1.212-1.003-2.195-2.24-2.195zM29.333 22.978h-4.009c-1.237 0-2.24.983-2.24 2.195v3.929c0 1.212 1.003 2.196 2.24 2.196h4.009c1.237 0 2.24-.983 2.24-2.196v-3.929c0-1.212-1.003-2.195-2.24-2.195zM17.591.224h-4.009c-1.237 0-2.24.983-2.24 2.195v3.929c0 1.212 1.003 2.195 2.24 2.195h4.009c1.237 0 2.24-.984 2.24-2.196V2.418c0-1.212-1.003-2.195-2.24-2.195zM29.044 11.926h-4.009c-1.237 0-2.24.983-2.24 2.195v3.929c0 1.212 1.003 2.195 2.24 2.195h4.009c1.237 0 2.24-.983 2.24-2.195v-3.929c0-1.212-1.003-2.195-2.24-2.195zM59.112 30.223c-7.748 0-12.89-5.227-12.89-13.369 0-7.965 5.068-13.298 12.706-13.298 6.427 0 10.943 3.662 11.604 9.173h-5.325c-.514-3.164-2.975-4.942-6.28-4.942-4.627 0-7.381 3.627-7.381 9.067 0 5.973 3.085 9.138 7.565 9.138 3.893 0 6.39-2.133 6.647-5.333v-.356h-7.161v-3.982h12.118v3.271c-.22 6.364-4.847 10.631-11.604 10.631zM73.927 29.867V3.911h12.89c6.573 0 9.181 3.093 9.181 7.573 0 4.018-2.938 5.938-6.353 6.4v.107c2.203.533 3.195 1.707 4.113 4.018 1.175 2.916 1.359 6.4 2.864 7.644v.213h-5.876c-1.248-1.209-1.542-5.013-2.203-7.324-.661-2.382-2.093-2.667-4.774-2.667h-4.7v9.991h-5.141zm5.141-14.115h7.198c3.011 0 4.407-1.707 4.407-3.911 0-2.418-1.726-3.804-4.407-3.804h-7.198v7.716zM99.412 29.867V3.911h18.325v4.124h-13.183v6.187h11.898v4.124h-11.898v7.289h13.367v4.231H99.413zM121.49 29.867V3.911h18.325v4.124h-13.184v6.187h11.898v4.124h-11.898v7.289h13.367v4.231H121.49zM143.568 29.867V3.911h6.243l8.887 14.329c2.717 4.338 3.048 5.76 3.048 5.76h.11l-.074-20.089h5.141v25.956h-6.28l-9.217-14.756c-2.093-3.342-2.644-5.369-2.644-5.369h-.073v20.124h-5.141zM170.79 29.867v-5.262h5.362v5.262h-5.362zM180.014 29.867V3.911h5.141v10.382h12.302V3.911h5.141v25.956h-5.141V18.418h-12.302v11.449h-5.141zM204.795 29.867l10.283-25.956h5.581l10.43 25.956h-5.509l-2.166-5.973h-11.128l-2.166 5.973h-5.325zm8.96-10.097h8.19l-2.387-6.4c-1.653-4.729-1.69-5.582-1.69-5.582h-.074s0 .853-1.653 5.582l-2.387 6.4zM233.278 29.867V3.911h12.89c6.574 0 9.181 3.093 9.181 7.573 0 4.018-2.938 5.938-6.354 6.4v.107c2.205.533 3.195 1.707 4.114 4.018 1.176 2.916 1.358 6.4 2.864 7.644v.213h-5.875c-1.248-1.209-1.542-5.013-2.203-7.324-.661-2.382-2.093-2.667-4.774-2.667h-4.701v9.991h-5.141zm5.141-14.115h7.198c3.011 0 4.406-1.707 4.406-3.911 0-2.418-1.726-3.804-4.406-3.804h-7.198v7.716zM264.214 29.867l-9.842-25.956h5.509s5.325 14.542 5.875 16.32c.882 2.844 1.285 4.302 1.285 4.302h.074c-.037 0 .368-1.458 1.285-4.302.589-1.778 5.693-16.32 5.693-16.32h5.325l-9.475 25.956h-5.728zM281.523 29.867V3.911h18.325v4.124h-13.184v6.187h11.898v4.124h-11.898v7.289h13.368v4.231h-18.509zM312.795 30.223c-6.83 0-10.944-3.591-10.944-8.924h5.875c-.074 3.022 1.984 4.693 5.069 4.693 3.267 0 4.81-1.244 4.81-3.093s-1.322-2.631-6.022-3.876c-4.296-1.138-8.997-2.489-8.997-7.822 0-4.231 3.819-7.644 9.842-7.644 6.206 0 10.173 3.378 10.173 8.142h-5.693c-.037-2.524-1.798-3.911-4.48-3.911-2.606 0-4.333 1.28-4.333 2.987 0 2.027 1.432 2.667 5.178 3.698 5.546 1.493 10.026 2.098 10.026 7.893 0 4.658-4.37 7.858-10.502 7.858zM331.669 29.867V8.143h-8.115V3.912h21.336v4.231h-8.08v21.724h-5.141z" style="fill:var(--color1, #fbfbfb)"/>
    </symbol>
    <symbol id="close" viewBox="0 0 32 32">
      <path stroke-linecap="round" stroke-linejoin="round" stroke-width="3" d="M24 8 8 24M8 8l16 16"/>
    </symbol>
    <symbol id="menu" viewBox="0 0 32 32">
      <path stroke-linecap="round" stroke-linejoin="round" stroke-width="3" d="M5.333 8h21.333M5.333 16H16M5.333 24h21.333"/>
    </symbol>
  </defs>
</svg>