<svg xmlns="http://www.w3.org/2000/svg" width="168" height="16" fill="none">
	<path fill="#FBFBFB" d="M14.541.157h-2.005a1.11 1.11 0 0 0-1.12 1.098v1.964a1.11 1.11 0 0 0 1.12 1.098h2.005a1.11 1.11 0 0 0 1.12-1.098V1.255a1.11 1.11 0 0 0-1.12-1.098ZM3.365 11.52H1.206C.54 11.52 0 12.012 0 12.618v1.964c0 .607.54 1.098 1.206 1.098h2.16c.665 0 1.205-.491 1.205-1.098v-1.964c0-.607-.54-1.098-1.206-1.098ZM3.125 5.79H1.12C.501 5.79 0 6.283 0 6.89v1.964a1.11 1.11 0 0 0 1.12 1.098h2.005a1.11 1.11 0 0 0 1.12-1.098V6.89c0-.607-.502-1.098-1.12-1.098ZM8.883 11.49H6.878c-.618 0-1.12.49-1.12 1.097v1.964a1.11 1.11 0 0 0 1.12 1.098h2.005a1.11 1.11 0 0 0 1.12-1.098v-1.964a1.11 1.11 0 0 0-1.12-1.098ZM3.125.043H1.12C.501.043 0 .535 0 1.141v1.964a1.11 1.11 0 0 0 1.12 1.098h2.005a1.11 1.11 0 0 0 1.12-1.098V1.141c0-.606-.502-1.098-1.12-1.098ZM9.038 5.849H7.033c-.618 0-1.12.491-1.12 1.097v1.965a1.11 1.11 0 0 0 1.12 1.098h2.005c.619 0 1.12-.492 1.12-1.098V6.946c0-.606-.501-1.097-1.12-1.097ZM14.667 11.49h-2.005c-.619 0-1.12.49-1.12 1.097v1.964a1.11 1.11 0 0 0 1.12 1.098h2.005a1.11 1.11 0 0 0 1.12-1.098v-1.964c0-.607-.502-1.098-1.12-1.098ZM8.795.112H6.791c-.619 0-1.12.491-1.12 1.098v1.964a1.11 1.11 0 0 0 1.12 1.098h2.004a1.11 1.11 0 0 0 1.12-1.098V1.21c0-.607-.501-1.098-1.12-1.098ZM14.522 5.963h-2.005c-.618 0-1.12.491-1.12 1.098v1.964a1.11 1.11 0 0 0 1.12 1.098h2.005a1.11 1.11 0 0 0 1.12-1.098V7.061c0-.607-.502-1.098-1.12-1.098ZM26.301 14C22.513 14 20 11.648 20 7.984 20 4.4 22.477 2 26.211 2c3.142 0 5.35 1.648 5.673 4.128H29.28c-.251-1.424-1.454-2.224-3.07-2.224-2.262 0-3.608 1.632-3.608 4.08 0 2.688 1.508 4.112 3.698 4.112 1.903 0 3.123-.96 3.25-2.4v-.16H26.05V7.744h5.924v1.472C31.866 12.08 29.604 14 26.3 14ZM33.543 13.84V2.16h6.3c3.214 0 4.489 1.392 4.489 3.408 0 1.808-1.436 2.672-3.106 2.88v.048c1.077.24 1.562.768 2.01 1.808.575 1.312.665 2.88 1.401 3.44v.096h-2.872c-.61-.544-.754-2.256-1.077-3.296-.324-1.072-1.024-1.2-2.334-1.2h-2.298v4.496h-2.513Zm2.513-6.352h3.519c1.472 0 2.154-.768 2.154-1.76 0-1.088-.844-1.712-2.154-1.712h-3.519v3.472ZM46.001 13.84V2.16h8.958v1.856h-6.445V6.8h5.816v1.856h-5.816v3.28h6.534v1.904h-9.047ZM56.794 13.84V2.16h8.957v1.856h-6.444V6.8h5.816v1.856h-5.816v3.28h6.534v1.904h-9.047ZM67.586 13.84V2.16h3.052l4.344 6.448c1.329 1.952 1.49 2.592 1.49 2.592h.054l-.036-9.04h2.513v11.68h-3.07L71.429 7.2c-1.023-1.504-1.293-2.416-1.293-2.416H70.1v9.056h-2.513ZM80.894 13.84v-2.368h2.62v2.368h-2.62ZM85.402 13.84V2.16h2.513v4.672h6.014V2.16h2.513v11.68H93.93V8.688h-6.014v5.152h-2.513ZM97.517 13.84l5.026-11.68h2.729l5.098 11.68h-2.693l-1.059-2.688h-5.439l-1.059 2.688h-2.603Zm4.38-4.544h4.003l-1.167-2.88c-.808-2.128-.826-2.512-.826-2.512h-.036s0 .384-.807 2.512l-1.167 2.88ZM111.44 13.84V2.16h6.301c3.214 0 4.488 1.392 4.488 3.408 0 1.808-1.436 2.672-3.105 2.88v.048c1.077.24 1.561.768 2.01 1.808.575 1.312.664 2.88 1.4 3.44v.096h-2.872c-.61-.544-.754-2.256-1.077-3.296-.323-1.072-1.023-1.2-2.334-1.2h-2.297v4.496h-2.514Zm2.514-6.352h3.518c1.472 0 2.154-.768 2.154-1.76 0-1.088-.844-1.712-2.154-1.712h-3.518v3.472ZM126.563 13.84l-4.811-11.68h2.693s2.603 6.544 2.872 7.344c.431 1.28.628 1.936.628 1.936h.036c-.018 0 .18-.656.628-1.936.288-.8 2.783-7.344 2.783-7.344h2.603l-4.632 11.68h-2.8ZM135.024 13.84V2.16h8.958v1.856h-6.445V6.8h5.817v1.856h-5.817v3.28h6.535v1.904h-9.048ZM150.311 14c-3.339 0-5.35-1.616-5.35-4.016h2.873c-.036 1.36.969 2.112 2.477 2.112 1.598 0 2.351-.56 2.351-1.392 0-.832-.646-1.184-2.944-1.744-2.1-.512-4.398-1.12-4.398-3.52 0-1.904 1.867-3.44 4.811-3.44 3.034 0 4.973 1.52 4.973 3.664h-2.783c-.018-1.136-.879-1.76-2.19-1.76-1.274 0-2.118.576-2.118 1.344 0 .912.7 1.2 2.531 1.664 2.711.672 4.901.944 4.901 3.552 0 2.096-2.136 3.536-5.134 3.536ZM159.537 13.84V4.064h-3.967V2.16H166v1.904h-3.949v9.776h-2.514Z"/>
</svg>